
Release info:

General
Format                                   : Matroska
Format version                           : Version 2
File size                                : 690 MiB
Duration                                 : 1h 41mn
Overall bit rate mode                    : Variable
Overall bit rate                         : 948 Kbps


Video
ID                                       : 1
Format                                   : MPEG-4 Visual
Format profile                           : Advanced Simple@L5
Format settings, BVOP                    : Yes
Format settings, QPel                    : No
Format settings, GMC                     : No warppoints
Format settings, Matrix                  : Default (H.263)
Codec ID                                 : V_MS/VFW/FOURCC / XVID
Codec ID/Hint                            : XviD
Duration                                 : 1h 41mn
Bit rate                                 : 808 Kbps
Width                                    : 640 pixels
Height                                   : 272 pixels
Display aspect ratio                     : 2.35:1
Frame rate mode                          : Constant
Frame rate                               : 23.976 fps
Color space                              : YUV
Chroma subsampling                       : 4:2:0
Bit depth                                : 8 bits
Scan type                                : Progressive
Compression mode                         : Lossy
Bits/(Pixel*Frame)                       : 0.194
Stream size                              : 588 MiB (85%)
Writing library                          : XviD 61
Language                                 : English
Default                                  : Yes
Forced                                   : No

Audio
ID                                       : 2
Format                                   : MPEG Audio
Format version                           : Version 1
Format profile                           : Layer 3
Mode                                     : Joint stereo
Mode extension                           : MS Stereo
Muxing mode                              : Header stripping
Codec ID                                 : A_MPEG/L3
Codec ID/Hint                            : MP3
Duration                                 : 1h 41mn
Bit rate mode                            : Variable
Bit rate                                 : 122 Kbps
Nominal bit rate                         : 128 Kbps
Channel(s)                               : 2 channels
Sampling rate                            : 48.0 KHz
Compression mode                         : Lossy
Stream size                              : 88.7 MiB (13%)
Language                                 : English
Default                                  : Yes
Forced                                   : No



Source:
credit to original movie ripper TST (Thanks)

IMDB Info:

A mother and daughter move to a new town and find themselves living next door to a house where a young girl murdered her parents. When the daughter befriends the surviving son, she learns the story is far from over.

Director: Mark Tonderai
Writers: David Loucka (screenplay), Jonathan Mostow (story)
Stars: Jennifer Lawrence, Elisabeth Shue and Max Thieriot

Genres: Horror | Thriller
 
http://www.imdb.com/title/tt1582507/

Screen Shot:
 
http://www.shotpix.com/images/29786599280926510628.png 
http://www.shotpix.com/images/80112215229909089937.png 
http://www.shotpix.com/images/50723503542202099664.png 
http://www.shotpix.com/images/03275223367376549887.png 
http://www.shotpix.com/images/45997772319405382480.png 
http://www.shotpix.com/images/94988456763637964223.png